<?xml version="1.0" standalone="no"?>
<!DOCTYPE svg PUBLIC "-//W3C//DTD SVG 20010904//EN"
 "http://www.w3.org/TR/2001/REC-SVG-20010904/DTD/svg10.dtd">
<svg version="1.0" xmlns="http://www.w3.org/2000/svg"
 width="1728.000000pt" height="2304.000000pt" viewBox="0 0 1728.000000 2304.000000"
 preserveAspectRatio="xMidYMid meet">
<metadata>
Created by potrace 1.16, written by Peter Selinger 2001-2019
</metadata>
<g transform="translate(0.000000,2304.000000) scale(0.100000,-0.100000)"
fill="#000000" stroke="none">
<path d="M10232 7844 c-14 -10 -22 -25 -22 -45 0 -29 -1 -30 -34 -23 -29 5
-39 2 -60 -20 -15 -14 -26 -32 -26 -41 0 -8 -9 -15 -19 -15 -21 0 -51 -35 -51
-58 0 -7 11 -24 25 -38 20 -20 23 -29 15 -44 -14 -27 -12 -50 4 -50 8 0 25 -9
38 -20 12 -10 37 -31 55 -45 40 -32 52 -83 31 -129 -8 -17 -13 -47 -10 -67 2
-20 -1 -46 -7 -58 -13 -23 -9 -26 19 -11 15 8 24 6 40 -10 41 -41 46 -29 55
160 8 139 22 249 24 183 l1 -32 24 22 c27 26 41 63 26 72 -15 9 -12 38 10 90
14 33 29 50 52 60 18 8 27 14 21 15 -7 0 -13 9 -13 20 0 11 -9 29 -21 41 -20
20 -32 21 -71 4 -13 -5 -18 -2 -18 8 0 16 -36 47 -55 47 -6 0 -21 -7 -33 -16z"/>
<path d="M6314 7754 c-220 -60 -362 -305 -299 -519 24 -84 47 -124 105 -188
158 -173 388 -206 574 -82 69 46 107 90 149 175 30 61 32 71 32 175 0 108 -1
113 -37 186 -41 82 -118 165 -198 212 -92 54 -221 70 -326 41z"/>
<path d="M7407 7706 c-94 -25 -146 -104 -147 -219 0 -72 11 -107 35 -107 16 0
18 -9 9 -34 -7 -18 -31 -21 -36 -5 -9 28 -101 -34 -157 -105 -40 -50 -41 -105
-5 -200 49 -127 131 -182 314 -211 239 -37 349 -57 428 -75 124 -30 154 -27
202 16 22 20 43 47 46 60 4 14 14 24 24 24 13 0 76 56 81 73 0 1 5 38 10 82 5
44 12 99 15 123 8 59 -10 96 -70 140 -75 55 -187 151 -311 268 -61 57 -126
115 -145 129 -70 52 -190 68 -293 41z"/>
<path d="M10693 7682 c-20 -13 -4 -46 30 -62 26 -12 33 -22 35 -52 2 -28 -2
-40 -18 -51 -16 -11 -20 -21 -15 -37 11 -34 -21 -73 -55 -68 -26 4 -27 3 -17
-19 13 -29 -5 -73 -29 -73 -14 0 -14 -3 -4 -15 11 -13 20 -7 67 42 62 66 57
56 -64 -128 -46 -69 -83 -129 -83 -132 0 -4 6 -4 13 -2 6 3 19 -10 27 -28 19
-41 68 -57 104 -34 19 13 31 14 54 6 23 -8 38 -7 66 5 30 12 42 27 66 80 24
52 28 69 20 90 -5 14 -14 26 -18 26 -16 0 22 69 41 76 15 5 48 59 69 116 4 9
0 28 -8 43 -10 20 -11 32 -3 47 18 33 3 68 -32 75 -27 5 -29 9 -24 34 5 20 1
33 -14 48 -26 26 -55 27 -81 1 -11 -11 -23 -20 -26 -20 -3 0 -17 9 -31 20 -27
21 -50 25 -70 12z"/>
<path d="M9545 7521 c-8 -25 -18 -27 -35 -6 -14 17 -43 19 -71 5 -22 -12 -27
-68 -7 -88 9 -9 9 -12 -3 -12 -22 0 -49 -32 -49 -57 0 -11 9 -28 20 -38 14
-13 17 -22 10 -29 -17 -17 -11 -52 15 -80 14 -15 25 -32 25 -37 0 -5 17 -18
38 -27 56 -25 85 -58 72 -82 -15 -28 -12 -48 9 -69 11 -11 24 -29 31 -40 25
-49 100 -68 151 -40 13 7 29 12 34 10 25 -8 69 -1 86 15 27 24 24 41 -10 58
-16 9 -33 28 -39 44 -8 23 -16 29 -41 29 -17 0 -40 8 -51 18 -22 20 -27 74 -8
93 10 10 6 11 -19 6 -39 -8 -67 7 -82 44 -10 23 -18 29 -43 29 -19 0 -36 7
-44 18 -17 23 -18 67 -3 82 8 8 8 17 0 31 -17 33 -13 51 20 84 27 27 29 33 16
46 -13 12 -16 12 -22 -7z"/>
<path d="M9002 7197 c-27 -32 -52 -105 -52 -153 0 -67 14 -106 50 -132 l28
-21 17 25 c9 14 19 24 21 21 8 -8 -18 -57 -27 -51 -5 3 -10 0 -10 -5 -1 -6 -2
-16 -3 -21 -1 -14 -27 -30 -46 -30 -10 1 -6 8 12 24 l26 24 -29 28 c-56 54
-193 43 -266 -22 -37 -32 -37 -33 -13 -34 14 0 54 -9 88 -20 35 -11 76 -20 90
-20 26 0 26 -1 -12 -32 -46 -38 -86 -118 -86 -174 0 -64 51 -157 114 -204 94
-71 136 -84 266 -85 114 0 117 1 192 38 91 44 152 107 200 205 31 64 33 72 33
182 0 109 -2 119 -32 183 -22 46 -53 88 -93 128 -124 122 -217 148 -301 87
-49 -36 -78 -67 -79 -85 0 -24 -17 -13 -28 20 -42 123 -49 137 -60 124z"/>
<path d="M5722 7134 c-7 -8 -21 -14 -31 -14 -11 0 -21 -7 -25 -15 -3 -8 -13
-15 -23 -15 -10 0 -24 -9 -31 -20 -7 -12 -17 -18 -22 -15 -5 3 -14 -4 -20 -15
-6 -11 -17 -20 -25 -20 -8 0 -15 -7 -15 -16 0 -9 -9 -18 -20 -21 -11 -3 -20
-10 -20 -16 0 -6 -9 -20 -20 -32 -39 -41 -57 -62 -63 -76 -4 -8 -16 -27 -27
-44 -11 -16 -25 -41 -30 -55 -6 -14 -20 -43 -30 -65 -27 -57 -67 -190 -80
-263 -12 -70 -15 -237 -5 -298 18 -106 76 -234 130 -288 26 -25 95 -60 149
-75 22 -6 41 -9 42 -8 1 1 -3 44 -9 96 -20 176 23 505 94 707 36 104 89 204
173 329 65 96 110 184 100 194 -6 6 -14 -2 -86 -89 -52 -63 -47 -37 7 38 25
34 45 66 45 72 0 17 -40 -8 -94 -59 -26 -25 -44 -37 -38 -26 14 27 69 78 112
104 19 11 30 21 25 21 -6 0 -21 -7 -33 -16 -20 -14 -24 -14 -44 0 -12 9 -27
16 -33 16 -5 0 -3 -5 5 -10 20 -13 -4 -14 -28 -1 -11 6 -21 4 -30 -5z"/>
<path d="M11121 7101 c-80 -80 -108 -326 -51 -431 36 -64 96 -103 167 -107
101 -7 147 41 146 152 -1 138 -107 339 -205 391 -34 18 -34 18 -57 -5z"/>
<path d="M10825 6878 c-3 -13 -9 -79 -15 -147 -6 -69 -12 -126 -14 -128 -1 -2
-11 54 -21 124 -17 119 -33 190 -34 153 -2 -49 23 -259 40 -341 11 -53 19
-118 17 -145 l-3 -49 -38 100 c-28 76 -43 141 -62 270 -14 93 -28 172 -32 175
-6 5 5 -190 13 -225 2 -11 -18 26 -46 83 -27 56 -51 102 -54 102 -6 0 5 -32
68 -192 32 -82 51 -153 65 -240 24 -144 34 -183 47 -183 5 0 37 4 70 8 l61 8
-26 62 c-26 62 -26 64 -26 325 0 144 -1 262 -2 262 -2 0 -5 -10 -8 -22z"/>
<path d="M6440 6825 c-6 -8 -9 -19 -6 -24 4 -5 -8 -11 -26 -13 -22 -2 -36 -10
-42 -24 -5 -11 -19 -25 -30 -30 -26 -11 -32 -37 -12 -56 8 -9 13 -24 10 -35
-4 -14 6 -27 39 -51 48 -34 63 -66 47 -106 -5 -14 -7 -32 -4 -40 3 -8 1 -24
-6 -35 -11 -22 3 -31 16 -10 5 8 10 6 16 -5 18 -33 26 -14 33 78 7 95 22 179
24 141 2 -19 3 -19 21 4 14 16 17 28 11 39 -10 18 14 83 35 95 30 17 -2 73
-36 62 -9 -3 -23 1 -30 10 -16 19 -44 19 -60 0z"/>
<path d="M8247 6471 c-68 -60 -137 -228 -137 -333 0 -110 90 -208 191 -208
100 0 145 83 136 249 -5 113 -36 215 -82 275 -39 52 -63 55 -108 17z"/>
<path d="M11584 6307 c96 -217 146 -467 146 -728 0 -154 -11 -226 -65 -409
-18 -63 -36 -135 -40 -160 -3 -25 -9 -54 -12 -65 -5 -17 -4 -18 10 -7 9 8 28
45 43 83 15 39 31 72 36 75 11 7 11 5 -18 -81 -14 -42 -23 -79 -20 -82 11 -11
46 30 76 90 16 33 30 53 30 45 0 -18 -45 -105 -68 -132 -13 -14 -13 -17 -2
-11 8 5 35 9 60 10 46 1 88 29 103 69 4 9 13 16 21 16 7 0 17 11 20 25 4 14
13 25 21 25 8 0 12 6 9 14 -3 8 5 21 18 30 12 9 19 16 15 16 -6 0 18 52 64
142 5 10 9 27 9 37 0 11 5 23 10 26 6 4 8 10 5 15 -3 5 -1 20 5 34 12 33 22
127 24 231 3 195 -44 374 -138 515 -39 59 -125 150 -142 150 -7 0 -19 6 -26
13 -15 16 -18 16 -121 21 -57 3 -77 1 -73 -7z"/>
<path d="M7361 6075 c-11 -123 -22 -176 -57 -294 -24 -79 -44 -153 -44 -166 0
-18 10 -26 63 -43 l62 -20 8 65 c9 78 54 186 162 387 41 77 73 141 71 143 -4
4 -82 -116 -130 -199 -16 -27 -29 -48 -31 -48 -4 0 34 127 55 180 9 25 20 59
24 75 l6 30 -16 -28 c-26 -48 -101 -250 -113 -307 -7 -30 -26 -80 -42 -110
l-29 -55 4 40 c3 22 8 67 12 100 3 33 22 110 41 170 62 192 72 228 63 219 -5
-5 -27 -54 -49 -109 l-40 -100 -3 110 -3 110 -14 -150z"/>
<path d="M6545 6157 c-8 -18 -19 -22 -67 -25 -49 -3 -58 0 -68 18 -14 27 -44
26 -157 -5 -169 -45 -259 -109 -315 -222 -29 -60 -33 -78 -36 -169 -8 -217 57
-325 303 -502 126 -90 235 -192 235 -218 0 -9 12 -46 27 -82 26 -66 26 -67 9
-112 -29 -73 -30 -94 -6 -136 20 -38 20 -29 -3 28 -9 22 -6 36 22 90 l32 64
-22 66 c-19 57 -21 70 -10 97 15 35 97 121 146 154 182 121 293 221 337 303
43 80 61 166 55 255 -15 197 -116 315 -325 378 -146 44 -146 44 -157 18z"/>
<path d="M7783 5683 c-33 -13 -3 -152 54 -250 l25 -43 -26 0 c-19 0 -32 10
-48 35 -13 19 -38 42 -56 51 -37 18 -152 20 -217 4 -22 -5 -57 -10 -77 -10
-51 0 -49 -19 7 -68 68 -60 127 -84 215 -89 66 -4 79 -1 109 19 52 35 75 47
79 43 8 -8 -11 -26 -48 -45 -21 -11 -48 -33 -59 -49 -32 -44 -54 -146 -47
-210 7 -54 52 -171 66 -171 4 0 11 15 14 33 3 17 20 52 37 77 85 126 107 213
70 275 -22 38 -27 70 -13 79 5 3 31 -22 58 -54 55 -67 127 -133 230 -211 l69
-52 0 -76 c0 -105 37 -181 134 -274 170 -165 431 -221 575 -126 121 80 112
258 -20 399 l-45 48 71 27 c90 34 147 78 177 134 93 177 -108 380 -401 407
-153 14 -296 -34 -379 -126 -45 -50 -49 -52 -85 -45 -72 13 -228 67 -295 102
-80 42 -115 80 -123 134 -6 38 -18 46 -51 32z m109 -190 c60 -37 136 -70 272
-117 l119 -41 11 -46 c7 -25 25 -65 42 -90 l30 -44 -52 -31 -52 -31 -59 31
c-119 64 -225 160 -299 271 -34 51 -69 125 -59 125 3 0 24 -12 47 -27z m569
-165 c51 -17 109 -58 124 -87 l13 -26 -120 0 c-107 0 -121 2 -134 19 -21 30
-18 72 8 90 27 19 63 20 109 4z m-86 -352 c75 -44 129 -159 95 -201 -33 -39
-136 3 -184 75 -75 114 -21 190 89 126z"/>
<path d="M5564 5659 c-3 -5 -2 -14 1 -20 4 -6 -2 -13 -12 -15 -11 -3 -28 -21
-38 -41 -18 -33 -18 -36 -2 -48 9 -7 17 -19 17 -27 0 -9 17 -20 39 -27 41 -12
44 -17 56 -85 3 -21 9 -35 12 -32 3 3 13 1 23 -4 16 -9 17 -5 4 58 -8 37 -16
78 -19 90 -4 14 -2 21 4 18 17 -11 24 15 11 39 -10 19 -10 30 0 54 6 16 9 34
6 39 -7 12 -94 13 -102 1z"/>
<path d="M9500 5595 c0 -10 -10 -15 -30 -15 -20 0 -30 -5 -30 -15 0 -8 -9 -15
-20 -15 -17 0 -19 -5 -16 -39 2 -24 13 -52 30 -71 28 -34 30 -43 17 -68 -12
-24 -24 -78 -15 -70 4 4 13 3 20 -3 12 -10 25 22 49 123 4 16 11 26 15 23 10
-6 35 23 27 32 -8 8 21 63 33 63 6 0 10 9 10 20 0 13 -7 20 -19 20 -10 0 -21
7 -25 15 -3 8 -15 15 -26 15 -11 0 -20 -7 -20 -15z"/>
<path d="M10166 5280 c-78 -24 -165 -167 -126 -206 8 -8 6 -15 -6 -25 -14 -11
-18 -11 -30 5 -30 41 -191 -8 -226 -69 -9 -16 -20 -65 -24 -107 -6 -74 -5 -81
25 -142 31 -64 86 -115 234 -215 26 -18 103 -78 170 -133 l122 -100 48 5 c26
2 55 11 65 21 10 9 34 16 54 16 47 0 98 36 124 88 12 23 36 58 53 77 39 45 40
87 6 155 -34 67 -78 179 -135 342 -26 76 -60 154 -75 173 -37 50 -99 92 -158
110 -56 17 -78 17 -121 5z"/>
<path d="M5823 5248 c-25 -5 -43 -15 -43 -23 0 -8 -10 -21 -22 -29 -25 -18
-78 -22 -78 -6 0 16 -21 12 -77 -15 -62 -28 -93 -72 -93 -130 0 -80 41 -112
145 -115 70 -2 29 -18 -47 -19 -45 -1 -58 -4 -58 -16 0 -8 21 -62 47 -120 56
-121 67 -130 168 -123 60 4 64 3 40 -10 -14 -7 -48 -16 -75 -19 -28 -3 -50 -7
-50 -8 0 -14 57 -125 72 -142 32 -34 110 -56 180 -51 57 4 59 4 32 -10 -16 -8
-59 -17 -96 -20 -38 -3 -68 -7 -68 -9 0 -13 104 -175 114 -179 7 -3 31 -1 54
5 53 11 53 5 1 -17 l-41 -17 41 -60 c52 -78 139 -167 160 -163 25 5 42 53 44
121 2 58 1 62 -22 65 l-24 4 24 12 c29 14 34 46 24 163 l-7 83 -37 -31 c-36
-28 -115 -59 -150 -59 -9 0 2 9 24 19 56 25 101 66 131 117 22 38 25 51 19 92
-4 26 -9 50 -11 54 -3 4 -28 -4 -57 -17 -28 -14 -63 -25 -77 -25 -21 0 -19 3
15 19 22 10 56 36 76 58 36 40 36 41 27 98 -5 32 -11 62 -14 66 -2 4 -20 1
-39 -7 -50 -21 -55 -17 -14 11 52 35 53 37 27 138 l-9 38 -32 -27 c-34 -29
-103 -63 -126 -64 -8 0 5 12 27 28 45 30 96 93 105 131 7 30 -34 145 -64 177
-22 23 -77 45 -109 43 -8 -1 -34 -5 -57 -11z"/>
<path d="M9244 5141 c-40 -18 -64 -52 -79 -111 -8 -34 22 -72 89 -111 l51 -31
-40 7 c-22 4 -55 15 -74 26 -18 11 -36 17 -40 14 -3 -4 -8 -64 -9 -135 l-4
-128 41 -27 c22 -15 57 -33 78 -41 l38 -13 -35 0 c-19 0 -53 6 -75 14 -22 8
-41 15 -42 15 -2 0 -3 -38 -3 -85 0 -80 2 -86 31 -119 36 -42 85 -73 142 -92
l42 -14 -55 5 c-30 4 -75 15 -99 26 -24 10 -45 19 -47 19 -6 0 -3 -109 4 -165
l7 -49 55 -18 55 -17 -52 0 c-29 -1 -53 -5 -53 -10 0 -23 32 -170 46 -213 20
-63 37 -75 69 -54 24 16 85 110 85 133 0 6 -12 16 -27 22 l-28 11 31 -5 c21
-4 35 -1 46 12 17 20 93 191 87 198 -2 2 -25 -1 -52 -6 -43 -8 -142 2 -155 16
-3 3 21 5 54 5 100 0 187 53 213 129 16 50 15 51 -36 52 -27 1 -59 5 -73 9
l-25 8 24 1 c14 1 51 8 82 17 51 14 59 20 72 53 8 20 18 50 21 68 7 31 6 32
-31 38 -58 10 -62 13 -17 14 22 1 47 7 56 14 18 13 51 124 39 131 -4 3 -27 0
-52 -5 -25 -6 -68 -7 -99 -3 l-55 8 56 6 c68 8 144 43 165 76 20 30 33 128 23
173 -11 50 -64 95 -128 111 -46 11 -53 10 -65 -5 -16 -22 -86 -11 -93 15 -9
33 -97 39 -159 11z"/>
<path d="M11079 4927 c-99 -42 -147 -86 -197 -181 -24 -46 -27 -61 -27 -156 0
-95 3 -111 28 -162 32 -66 122 -154 189 -186 25 -11 72 -26 105 -33 150 -31
322 61 391 209 23 49 27 70 27 152 0 85 -3 101 -29 155 -37 75 -115 153 -192
190 -48 23 -75 29 -149 32 -77 3 -98 0 -146 -20z"/>
<path d="M6903 4419 c-6 -24 -21 -80 -33 -124 l-23 -80 -56 56 c-66 65 -121
85 -206 76 -97 -10 -174 -63 -244 -168 -104 -156 -112 -385 -18 -539 37 -61
129 -150 192 -185 149 -84 333 -87 487 -9 103 52 243 212 269 307 7 28 7 48
-1 70 -18 53 -78 133 -115 153 -36 19 -45 34 -21 34 8 0 41 11 73 24 32 14 71
27 86 31 25 5 27 8 16 21 -20 24 -85 54 -142 64 -79 16 -145 -1 -191 -49 -35
-36 -36 -40 -18 -45 19 -6 61 -46 48 -46 -4 0 -21 6 -40 14 -41 17 -43 41 -5
81 36 39 49 75 49 139 0 68 -23 135 -64 182 l-32 37 -11 -44z"/>
<path d="M9981 4377 c-8 -19 -15 -23 -39 -19 -21 3 -34 -2 -43 -15 -8 -10 -23
-23 -34 -29 -25 -14 -32 -52 -11 -60 14 -5 14 -8 1 -27 -13 -19 -12 -23 20
-51 45 -41 59 -79 41 -114 -22 -44 -28 -92 -11 -92 8 0 18 -8 24 -17 10 -18
18 3 56 154 11 40 22 69 25 63 4 -6 14 -4 26 5 15 10 20 22 17 42 -4 22 3 37
27 63 37 40 37 73 0 78 -13 2 -30 13 -38 23 -18 26 -51 24 -61 -4z"/>
<path d="M10606 4149 c-55 -29 -130 -107 -160 -167 -47 -93 -29 -190 45 -240
70 -48 144 -3 190 114 18 48 23 79 23 165 1 92 -2 110 -18 128 -23 26 -31 26
-80 0z"/>
<path d="M8649 4125 c-152 -56 -243 -171 -256 -323 -4 -51 -1 -83 12 -123 19
-58 63 -135 94 -163 19 -17 19 -19 -10 -73 -56 -107 -34 -240 55 -328 63 -62
114 -87 189 -93 75 -6 133 11 193 57 100 76 138 220 87 332 l-21 47 45 43
c199 194 116 515 -160 618 -66 24 -171 27 -228 6z"/>
<path d="M9620 3739 c-75 -13 -169 -59 -224 -109 -138 -127 -166 -384 -63
-560 18 -30 95 -120 172 -200 78 -80 152 -163 165 -184 21 -35 32 -76 56 -201
4 -23 -2 -41 -25 -75 -31 -45 -38 -87 -21 -125 6 -14 7 -7 3 22 -5 36 -1 47
24 80 49 62 54 77 43 125 -18 80 -14 100 33 145 39 38 167 116 244 148 61 26
168 93 217 136 149 131 199 356 117 523 -43 88 -108 143 -247 213 l-114 56
-18 -23 c-18 -22 -23 -23 -73 -14 -45 7 -55 13 -57 32 -3 21 -7 22 -90 21 -48
-1 -112 -5 -142 -10z"/>
<path d="M7337 3596 c-102 -30 -156 -102 -157 -210 0 -82 17 -135 47 -142 14
-4 23 -14 23 -25 0 -24 -29 -37 -40 -18 -12 19 -74 -32 -122 -101 -50 -71 -51
-115 -3 -209 40 -81 95 -132 172 -161 45 -17 79 -20 211 -20 155 -1 379 -13
477 -25 42 -6 55 -3 85 17 19 13 45 42 56 65 12 23 37 57 57 75 45 43 64 106
49 163 -6 23 -7 56 -3 75 9 44 -1 95 -25 121 -11 12 -50 39 -89 62 -91 53
-216 136 -335 222 -142 103 -177 118 -273 122 -48 1 -102 -3 -130 -11z"/>
</g>
</svg>
