<svg xmlns="http://www.w3.org/2000/svg" xmlns:xlink="http://www.w3.org/1999/xlink" width="1920" zoomAndPan="magnify" viewBox="0 0 1440 809.999993" height="1080" preserveAspectRatio="xMidYMid meet" version="1.0"><defs><filter x="0%" y="0%" width="100%" height="100%" id="121800ea52"><feColorMatrix values="0 0 0 0 1 0 0 0 0 1 0 0 0 0 1 0 0 0 1 0" color-interpolation-filters="sRGB"/></filter><g/><mask id="4e9bd4469b"><g filter="url(#121800ea52)"><rect x="-144" width="1728" fill="#000000" y="-80.999999" height="971.999992" fill-opacity="0.2392"/></g></mask><clipPath id="4cbe32defd"><path d="M 24 8 L 252 8 L 252 185 L 24 185 Z M 24 8 " clip-rule="nonzero"/></clipPath><clipPath id="3c955d0be3"><path d="M 269.882812 68.152344 L 235.511719 186.253906 L -0.6875 117.507812 L 33.683594 -0.589844 Z M 269.882812 68.152344 " clip-rule="nonzero"/></clipPath><clipPath id="83a047a8e0"><path d="M 34 -0.5 L -0.371094 117.601562 L 235.828125 186.34375 L 270.199219 68.246094 Z M 34 -0.5 " clip-rule="nonzero"/></clipPath><clipPath id="c797b806dd"><rect x="0" width="271" y="0" height="187"/></clipPath><clipPath id="dadaea5fba"><path d="M 946 355 L 1383 355 L 1383 764 L 946 764 Z M 946 355 " clip-rule="nonzero"/></clipPath><clipPath id="2d0b20aed4"><path d="M 1089.277344 178.074219 L 1564.085938 478.277344 L 1287.128906 916.316406 L 812.324219 616.117188 Z M 1089.277344 178.074219 " clip-rule="nonzero"/></clipPath><clipPath id="c613c47e99"><path d="M 1089.277344 178.074219 L 1564.085938 478.277344 L 1287.128906 916.316406 L 812.324219 616.117188 Z M 1089.277344 178.074219 " clip-rule="nonzero"/></clipPath><mask id="e35ff3429d"><g filter="url(#121800ea52)"><rect x="-144" width="1728" fill="#000000" y="-80.999999" height="971.999992" fill-opacity="0.2392"/></g></mask><clipPath id="d81a59979d"><path d="M 2 76 L 277 76 L 277 217 L 2 217 Z M 2 76 " clip-rule="nonzero"/></clipPath><clipPath id="d740a68681"><path d="M 72.433594 253.550781 L 0.347656 143.871094 L 219.707031 -0.304688 L 291.796875 109.375 Z M 72.433594 253.550781 " clip-rule="nonzero"/></clipPath><clipPath id="264ec91c1e"><path d="M 291.71875 109.425781 L 219.628906 -0.253906 L 0.269531 143.921875 L 72.355469 253.601562 Z M 291.71875 109.425781 " clip-rule="nonzero"/></clipPath><clipPath id="64c747f270"><rect x="0" width="292" y="0" height="254"/></clipPath></defs><g mask="url(#4e9bd4469b)"><g transform="matrix(1, 0, 0, 1, 1162, 16)"><g clip-path="url(#c797b806dd)"><g clip-path="url(#4cbe32defd)"><g clip-path="url(#3c955d0be3)"><g clip-path="url(#83a047a8e0)"><path fill="#40552f" d="M 251.589844 100.144531 C 250.570312 100.121094 249.515625 100.085938 248.503906 100.03125 C 238.664062 99.328125 228.867188 98.597656 219.039062 97.859375 C 212.929688 97.414062 206.777344 97.234375 200.695312 96.457031 C 194.511719 95.683594 188.417969 94.355469 182.285156 93.289062 C 182.125 93.242188 181.9375 93.1875 181.789062 93.109375 C 181.761719 92.964844 181.703125 92.8125 181.738281 92.6875 C 183.734375 86.660156 182.699219 80.675781 181.3125 74.726562 C 180.597656 71.640625 179.925781 68.535156 179.097656 65.488281 C 178.949219 64.933594 178.195312 64.234375 177.683594 64.222656 C 177.171875 64.210938 176.3125 64.816406 176.132812 65.308594 C 174.765625 69.296875 173.988281 73.382812 174.589844 77.5625 C 175.273438 82.28125 176.308594 86.964844 177.167969 91.664062 C 177.210938 91.882812 177.21875 92.089844 177.304688 92.730469 C 171.140625 91.175781 165.175781 89.644531 159.421875 88.210938 C 159.460938 86.203125 159.46875 84.527344 159.578125 82.847656 C 159.652344 82.011719 159.792969 81.164062 159.960938 80.355469 C 160.394531 77.8125 161 75.25 161.164062 72.695312 C 161.191406 71.0625 160.886719 69.398438 160.257812 67.914062 C 159.230469 65.320312 157.851562 62.867188 156.539062 60.429688 C 156.113281 59.65625 155.535156 58.9375 154.875 58.371094 C 153.550781 57.265625 151.992188 57.804688 151.742188 59.480469 C 151.101562 64.152344 150.421875 68.851562 150.074219 73.578125 C 149.742188 77.894531 151.171875 81.941406 152.777344 86.070312 C 151.800781 85.785156 150.9375 85.570312 150.0625 85.28125 C 144.210938 83.234375 138.394531 81.199219 132.542969 79.15625 C 132.109375 78.996094 131.710938 78.84375 131.292969 78.621094 C 130.542969 78.265625 130.28125 77.742188 130.632812 76.886719 C 132.773438 71.65625 133.519531 65.917969 132.820312 60.304688 C 132.65625 58.75 132.273438 57.234375 131.625 55.816406 C 130.476562 53.394531 129.054688 51.097656 127.707031 48.785156 C 127.203125 47.921875 126.472656 47.125 125.367188 47.28125 C 124.152344 47.445312 123.921875 48.472656 123.648438 49.417969 C 122.46875 53.355469 121.476562 57.347656 121.695312 61.550781 C 121.765625 63.421875 121.558594 65.3125 121.160156 67.148438 C 120.617188 69.726562 121.355469 71.894531 122.730469 74.007812 C 123.050781 74.441406 123.238281 74.976562 123.28125 75.535156 C 120.851562 74.453125 118.398438 73.464844 115.988281 72.316406 C 113.644531 71.191406 111.382812 69.882812 109.089844 68.699219 C 108.34375 68.3125 108.296875 67.886719 108.421875 67.101562 C 109.160156 62.800781 110.003906 58.492188 110.34375 54.140625 C 110.515625 52.136719 109.960938 49.921875 109.136719 48.039062 C 107.628906 44.621094 105.703125 41.355469 103.835938 38.105469 C 103.511719 37.566406 102.53125 36.941406 102.078125 37.082031 C 101.339844 37.378906 100.75 37.996094 100.488281 38.777344 C 98.300781 47.109375 98.457031 55.40625 101.503906 63.550781 C 101.710938 64.019531 101.800781 64.527344 101.757812 65.027344 L 82.148438 53.5 C 85.75 49.480469 86.6875 44.617188 87.746094 39.792969 C 87.875 39.007812 87.871094 38.183594 87.695312 37.378906 C 86.96875 33.746094 86.171875 30.125 85.34375 26.496094 C 85.144531 25.648438 84.855469 24.878906 84.460938 24.113281 C 83.617188 22.535156 81.90625 22.414062 81.101562 23.992188 C 79.921875 26.285156 78.753906 28.648438 78.097656 31.128906 C 76.972656 35.355469 76.160156 39.671875 75.390625 43.96875 C 75.144531 45.402344 75.414062 46.953125 75.457031 48.574219 C 70.414062 44.46875 65.027344 40.710938 60.601562 35.65625 C 63.160156 34.175781 63.542969 31.445312 64.472656 29.183594 C 65.636719 26.371094 66.480469 23.46875 67.007812 20.472656 C 67.730469 16.234375 65.878906 12.578125 63.246094 9.382812 C 61.777344 7.585938 60.222656 7.988281 59.261719 10.105469 C 56.761719 15.640625 56.175781 21.53125 56.015625 27.507812 C 55.988281 27.949219 55.996094 28.394531 56.003906 28.839844 C 55.984375 28.90625 55.925781 28.992188 55.808594 29.160156 C 52.574219 24.488281 48.152344 20.839844 46.253906 15.460938 C 45.867188 14.320312 45.550781 13.167969 45.171875 11.996094 C 45.070312 11.519531 44.855469 11.082031 44.589844 10.695312 C 44.351562 10.457031 44.003906 10.355469 43.652344 10.390625 C 43.375 10.515625 43.199219 10.769531 43.179688 11.074219 C 43.234375 12.527344 43.105469 14.03125 43.484375 15.441406 C 44.453125 19.179688 46.308594 22.460938 48.757812 25.464844 C 50.507812 27.585938 52.117188 29.832031 53.53125 32.160156 C 53.214844 32.070312 52.898438 31.976562 52.613281 31.894531 C 49.203125 31.003906 45.828125 29.886719 42.34375 29.25 C 37.238281 28.308594 32.511719 30.050781 27.878906 31.953125 C 26.914062 32.324219 26.019531 32.816406 25.132812 33.378906 C 24.019531 34.152344 23.910156 35.695312 25.078125 36.273438 C 30.921875 39.171875 36.671875 42.730469 43.519531 42.050781 C 46.625 41.757812 49.671875 40.589844 52.6875 39.652344 C 54.457031 39.105469 56.164062 38.304688 57.476562 37.792969 L 72.207031 50.433594 C 72.207031 50.433594 72.171875 50.5625 72.136719 50.550781 C 65.597656 50.53125 59.753906 53.179688 53.742188 55.226562 C 52.847656 55.585938 52.054688 56.074219 51.328125 56.683594 C 50.078125 57.6875 50.136719 59.246094 51.667969 59.757812 C 53.9375 60.558594 56.289062 61.308594 58.648438 61.449219 C 62.019531 61.644531 65.445312 61.304688 68.820312 61.125 C 72.75 60.933594 76.046875 59.152344 79.058594 56.8125 C 79.847656 56.21875 80.386719 56.136719 81.261719 56.664062 C 86.390625 59.765625 91.582031 62.785156 96.75 65.863281 C 96.921875 65.980469 97.132812 66.078125 97.539062 66.332031 C 97.1875 66.367188 96.84375 66.371094 96.507812 66.339844 C 94.460938 65.847656 92.519531 66.273438 90.554688 66.902344 C 85.957031 68.4375 81.628906 70.707031 77.742188 73.578125 C 76.285156 74.695312 74.984375 75.992188 73.851562 77.410156 C 72.449219 79.160156 73.152344 80.632812 75.410156 80.773438 C 76.777344 80.898438 78.183594 80.898438 79.5625 80.75 C 85.523438 80.054688 91.535156 79.542969 97.1875 77.320312 C 99.011719 76.585938 100.78125 75.695312 102.457031 74.644531 C 103.453125 74.042969 104.226562 73.035156 105.121094 72.203125 L 105.980469 72.898438 L 106.664062 71.144531 C 111.0625 73.347656 115.382812 75.460938 119.867188 77.726562 C 116.011719 78.484375 112.800781 80.324219 109.839844 82.613281 C 105.90625 85.644531 103.050781 89.570312 100.578125 93.816406 C 100.289062 94.347656 100.222656 95.390625 100.5625 95.761719 C 100.945312 96.214844 101.921875 96.5 102.542969 96.375 C 104.570312 96.003906 106.5625 95.523438 108.535156 94.867188 C 112.460938 93.507812 116.347656 91.933594 120.273438 90.578125 C 123.714844 89.355469 126.066406 86.925781 128.039062 84.039062 C 129.753906 81.5625 129.710938 81.582031 132.511719 82.570312 C 138.140625 84.550781 143.777344 86.5 149.40625 88.480469 C 149.871094 88.648438 150.335938 88.816406 151.136719 89.121094 C 150.359375 89.441406 149.917969 89.65625 149.449219 89.859375 C 140.683594 93.234375 135.25 99.660156 132.265625 108.378906 C 132.050781 109 131.761719 109.636719 131.609375 110.277344 C 131.285156 111.515625 132.261719 112.519531 133.46875 112.015625 C 141.023438 108.910156 148.363281 105.363281 154.699219 100.085938 C 156.335938 98.816406 157.453125 96.984375 157.875 94.949219 C 158.101562 93.816406 158.515625 92.738281 158.855469 91.574219 C 164.558594 93.0625 170.144531 94.480469 175.816406 95.960938 C 175.417969 96.152344 175.089844 96.332031 174.765625 96.511719 C 167.675781 100.027344 163.273438 105.730469 161.179688 113.269531 C 160.859375 114.613281 160.660156 115.992188 160.570312 117.371094 C 160.585938 117.785156 160.777344 118.183594 161.144531 118.460938 C 161.472656 118.625 162.121094 118.640625 162.359375 118.402344 C 166.578125 114.394531 171.910156 111.734375 175.625 107.097656 C 177.671875 104.546875 178.820312 101.660156 179.773438 98.617188 C 180.238281 97.144531 180.96875 96.636719 182.476562 96.871094 C 188.984375 97.945312 195.4375 99.445312 201.96875 99.976562 C 217.234375 101.234375 232.507812 102.464844 247.835938 101.378906 C 249.136719 101.277344 250.398438 101.0625 251.714844 100.898438 Z M 135.597656 107.535156 C 138.394531 100.507812 144.960938 92.800781 156.238281 90.433594 C 155.28125 92.789062 155.460938 95.34375 153.574219 97.121094 C 149.707031 100.753906 144.941406 102.996094 140.371094 105.5 C 138.914062 106.273438 137.320312 106.804688 135.597656 107.535156 Z M 127.960938 76.761719 C 127.726562 76.863281 127.492188 76.964844 127.253906 77.070312 C 126.324219 75.085938 125.351562 73.125 124.492188 71.128906 C 124.175781 70.457031 124.019531 69.691406 124.035156 68.941406 C 124.265625 64.96875 124.515625 61.039062 124.914062 57.078125 C 125.082031 55.449219 125.613281 53.859375 126.007812 52.023438 C 128.429688 55.363281 129.660156 58.085938 129.898438 60.449219 C 130.503906 66.03125 129.515625 71.425781 127.960938 76.761719 Z M 29.832031 34.78125 C 35.679688 31.417969 48.699219 31.917969 53.445312 35.628906 C 45.476562 40.394531 37.59375 39.332031 29.832031 34.78125 Z M 77.898438 77.871094 L 77.726562 77.410156 C 78.351562 76.90625 78.902344 76.3125 79.59375 75.933594 C 83.152344 73.957031 86.734375 72.019531 90.273438 70.105469 C 94.261719 67.945312 98.058594 69.257812 102.34375 70.675781 C 94.878906 76.308594 86.21875 76.492188 77.898438 77.871094 Z M 105.234375 92.433594 C 108.160156 87.671875 113.238281 83.292969 118.007812 81.394531 C 120.652344 80.316406 123.371094 80.285156 126.316406 81.007812 C 124.546875 83.777344 122.761719 86.269531 119.617188 87.410156 C 115.519531 88.886719 111.464844 90.34375 107.398438 91.828125 C 106.78125 92.0625 106.128906 92.179688 105.234375 92.433594 Z M 80.433594 51.972656 C 80.199219 51.835938 80.007812 51.78125 80.003906 51.675781 C 79.511719 49.242188 78.394531 46.722656 78.699219 44.382812 C 79.375 39.238281 80.78125 34.167969 81.925781 29.058594 C 82.058594 28.722656 82.179688 28.414062 82.375 28.097656 L 82.734375 28.164062 C 83.410156 31.613281 84.117188 35.074219 84.761719 38.511719 C 84.789062 39 84.746094 39.5 84.609375 39.972656 C 83.835938 44.164062 82.257812 48.054688 80.433594 51.972656 Z M 102.875 43.167969 C 104.523438 45.871094 106.363281 48.496094 106.945312 51.679688 C 107.171875 52.910156 107.058594 54.246094 106.953125 55.550781 C 106.761719 57.617188 106.457031 59.71875 106.195312 61.800781 L 105.90625 64.214844 L 105.496094 64.199219 C 101.988281 57.527344 101.929688 50.425781 102.875 43.167969 Z M 163.429688 114.023438 C 164.753906 106.878906 172.207031 99.53125 177.007812 98.464844 C 175.152344 105.078125 170.359375 109.296875 163.429688 114.023438 Z M 154.714844 64.109375 C 155.457031 65.558594 156.046875 66.722656 156.65625 67.925781 C 157.710938 69.945312 157.980469 71.976562 157.691406 74.253906 C 157.21875 78.121094 155.710938 81.890625 156.523438 85.929688 C 156.511719 85.960938 156.433594 86.003906 156.226562 86.117188 C 152.726562 79.074219 152.648438 71.792969 154.714844 64.109375 Z M 55.742188 57.660156 L 55.71875 57.378906 C 58.042969 56.582031 60.367188 55.785156 62.664062 54.949219 C 65.652344 53.867188 68.808594 53.28125 71.980469 53.210938 C 73.644531 53.148438 75.28125 53.65625 76.609375 54.625 C 75.121094 55.972656 72.425781 57.34375 70.40625 57.441406 C 66.292969 57.683594 62.214844 57.796875 58.09375 57.933594 C 57.3125 57.910156 56.519531 57.816406 55.742188 57.660156 Z M 61.84375 13.492188 C 63.175781 15.386719 63.960938 17.394531 63.8125 19.679688 C 63.496094 24.175781 61.328125 28.097656 59.84375 32.253906 C 59.03125 25.855469 59.914062 19.640625 61.84375 13.492188 Z M 179.410156 87.96875 C 178.550781 83.269531 177.734375 78.886719 177.800781 74.421875 C 179.113281 78.742188 179.972656 83.097656 179.410156 87.96875 Z M 238.699219 175.882812 C 239.40625 173.691406 239.695312 171.519531 239.296875 169.246094 C 239.113281 168.335938 239.078125 167.402344 239.011719 166.457031 C 238.839844 164.214844 238.097656 162.050781 236.902344 160.160156 C 236.269531 159.152344 235.507812 158.351562 236.160156 156.933594 C 236.601562 156 235.496094 155.09375 234.46875 155.445312 C 234.046875 155.597656 233.671875 155.832031 233.371094 156.152344 C 231.269531 158.65625 229.277344 161.261719 228.289062 164.429688 C 227.984375 165.234375 227.839844 166.082031 227.875 166.914062 C 228.203125 171.902344 228.492188 176.917969 230.300781 181.65625 C 230.546875 182.34375 230.84375 182.976562 231.210938 183.597656 C 232.320312 185.324219 234.183594 185.285156 235.128906 183.4375 C 236.328125 180.976562 237.476562 178.4375 238.699219 175.882812 Z M 234.054688 160.632812 L 234.476562 160.71875 C 235.011719 164.058594 235.683594 167.40625 236.011719 170.753906 C 236.308594 173.851562 234.914062 176.527344 233.140625 179.433594 C 232.835938 178.25 232.535156 177.511719 232.453125 176.734375 C 232.070312 173.816406 231.757812 170.882812 231.445312 167.953125 C 231.144531 165.09375 232.527344 162.824219 234.054688 160.632812 Z M 191.773438 151.03125 C 192.09375 151.808594 192.171875 152.722656 192.609375 152.984375 C 193.34375 153.40625 194.222656 153.558594 195.0625 153.390625 C 196.875 152.925781 198.640625 152.277344 200.351562 151.472656 C 205.265625 149.070312 210.09375 146.503906 213.597656 142.113281 C 214.074219 141.535156 214.414062 140.84375 214.867188 140.226562 C 215.539062 139.324219 216.308594 138.453125 217.011719 137.5625 C 217.410156 137.027344 217.726562 136.402344 218.09375 135.855469 C 217.464844 135.539062 216.792969 134.898438 216.160156 134.953125 C 211.503906 135.171875 206.953125 135.96875 203.210938 139.058594 C 200.363281 141.414062 197.578125 143.921875 194.96875 146.519531 C 193.726562 147.730469 192.886719 149.4375 191.773438 151.03125 Z M 212.839844 138.128906 C 208.894531 144.136719 203.3125 147.0625 196.957031 148.878906 C 201.535156 144.457031 205.664062 139.460938 212.839844 138.128906 Z M 212.839844 138.128906 " fill-opacity="1" fill-rule="nonzero"/></g></g></g></g></g></g><g clip-path="url(#dadaea5fba)"><g clip-path="url(#2d0b20aed4)"><g clip-path="url(#c613c47e99)"><path fill="#b7d4be" d="M 1130.148438 752.191406 C 1130.148438 752.191406 1350.183594 816.242188 1376.25 634.140625 C 1402.316406 452.039062 1349.726562 342.765625 1170.207031 356.703125 C 990.683594 370.640625 918.375 448.75 955.558594 563.984375 C 992.746094 679.21875 1013.542969 743.355469 1130.148438 752.191406 " fill-opacity="1" fill-rule="nonzero"/></g></g></g><g fill="#000000" fill-opacity="1"><g transform="translate(1037.646991, 506.991861)"><g><path d="M 14.300781 0 C 17.859375 0 21.003906 -2.542969 21.003906 -6.445312 C 21.003906 -9.265625 18.996094 -11.65625 16.398438 -12.34375 C 18.253906 -13.167969 19.613281 -15.144531 19.613281 -17.363281 C 19.613281 -20.832031 16.914062 -23.378906 13.320312 -23.378906 L 3.507812 -23.378906 L 3.507812 0 Z M 5.550781 -21.574219 L 13.253906 -21.574219 C 15.625 -21.574219 17.550781 -19.648438 17.550781 -17.257812 C 17.550781 -14.835938 15.625 -12.925781 13.234375 -12.925781 L 5.550781 -12.925781 Z M 5.550781 -11.257812 L 14.214844 -11.257812 C 16.828125 -11.257812 18.910156 -9.160156 18.910156 -6.582031 C 18.910156 -3.917969 16.8125 -1.855469 14.164062 -1.855469 L 5.550781 -1.855469 Z M 5.550781 -11.257812 "/></g></g></g><g fill="#000000" fill-opacity="1"><g transform="translate(1061.095659, 506.991861)"><g><path d="M 5.15625 0 L 5.15625 -8.285156 C 5.15625 -12.890625 7.734375 -15.625 10.96875 -15.625 L 12.429688 -15.625 L 12.429688 -17.414062 L 10.882812 -17.414062 C 8.148438 -17.414062 5.980469 -15.726562 5.089844 -12.890625 L 5.089844 -17.414062 L 3.164062 -17.414062 L 3.164062 0 Z M 5.15625 0 "/></g></g></g><g fill="#000000" fill-opacity="1"><g transform="translate(1075.05592, 506.991861)"><g><path d="M 10.46875 0.464844 C 15.523438 0.464844 19.441406 -3.59375 19.441406 -8.699219 C 19.441406 -13.820312 15.523438 -17.878906 10.46875 -17.878906 C 5.414062 -17.878906 1.511719 -13.820312 1.511719 -8.699219 C 1.511719 -3.574219 5.433594 0.464844 10.46875 0.464844 Z M 10.484375 -1.425781 C 6.601562 -1.425781 3.488281 -4.554688 3.488281 -8.714844 C 3.488281 -12.824219 6.601562 -15.984375 10.484375 -15.984375 C 14.371094 -15.984375 17.449219 -12.824219 17.449219 -8.714844 C 17.449219 -4.554688 14.371094 -1.425781 10.484375 -1.425781 Z M 10.484375 -1.425781 "/></g></g></g><g fill="#000000" fill-opacity="1"><g transform="translate(1096.854432, 506.991861)"><g><path d="M 10.296875 0.464844 C 14.164062 0.464844 17.308594 -1.875 18.375 -5.398438 L 16.347656 -5.398438 C 15.296875 -2.820312 12.976562 -1.410156 10.3125 -1.410156 C 6.875 -1.410156 3.488281 -4.230469 3.488281 -8.714844 C 3.488281 -13.167969 6.859375 -15.984375 10.3125 -15.984375 C 12.976562 -15.984375 15.316406 -14.59375 16.347656 -12.085938 L 18.394531 -12.085938 C 17.292969 -15.503906 14.199219 -17.878906 10.296875 -17.878906 C 5.414062 -17.878906 1.511719 -13.804688 1.511719 -8.699219 C 1.511719 -3.609375 5.414062 0.464844 10.296875 0.464844 Z M 10.296875 0.464844 "/></g></g></g><g fill="#000000" fill-opacity="1"><g transform="translate(1117.329373, 506.991861)"><g><path d="M 10.296875 0.464844 C 14.164062 0.464844 17.308594 -1.875 18.375 -5.398438 L 16.347656 -5.398438 C 15.296875 -2.820312 12.976562 -1.410156 10.3125 -1.410156 C 6.875 -1.410156 3.488281 -4.230469 3.488281 -8.714844 C 3.488281 -13.167969 6.859375 -15.984375 10.3125 -15.984375 C 12.976562 -15.984375 15.316406 -14.59375 16.347656 -12.085938 L 18.394531 -12.085938 C 17.292969 -15.503906 14.199219 -17.878906 10.296875 -17.878906 C 5.414062 -17.878906 1.511719 -13.804688 1.511719 -8.699219 C 1.511719 -3.609375 5.414062 0.464844 10.296875 0.464844 Z M 10.296875 0.464844 "/></g></g></g><g fill="#000000" fill-opacity="1"><g transform="translate(1137.804314, 506.991861)"><g><path d="M 10.46875 0.464844 C 15.523438 0.464844 19.441406 -3.59375 19.441406 -8.699219 C 19.441406 -13.820312 15.523438 -17.878906 10.46875 -17.878906 C 5.414062 -17.878906 1.511719 -13.820312 1.511719 -8.699219 C 1.511719 -3.574219 5.433594 0.464844 10.46875 0.464844 Z M 10.484375 -1.425781 C 6.601562 -1.425781 3.488281 -4.554688 3.488281 -8.714844 C 3.488281 -12.824219 6.601562 -15.984375 10.484375 -15.984375 C 14.371094 -15.984375 17.449219 -12.824219 17.449219 -8.714844 C 17.449219 -4.554688 14.371094 -1.425781 10.484375 -1.425781 Z M 10.484375 -1.425781 "/></g></g></g><g fill="#000000" fill-opacity="1"><g transform="translate(1159.602823, 506.991861)"><g><path d="M 5.140625 0 L 5.140625 -24.238281 L 3.164062 -24.238281 L 3.164062 0 Z M 5.140625 0 "/></g></g></g><g fill="#000000" fill-opacity="1"><g transform="translate(1168.750121, 506.991861)"><g><path d="M 4.144531 -21.417969 C 5.070312 -21.417969 5.691406 -22.054688 5.691406 -22.878906 C 5.691406 -23.671875 5.070312 -24.339844 4.144531 -24.339844 C 3.230469 -24.339844 2.613281 -23.671875 2.613281 -22.878906 C 2.613281 -22.054688 3.230469 -21.417969 4.144531 -21.417969 Z M 5.140625 0 L 5.140625 -17.414062 L 3.164062 -17.414062 L 3.164062 0 Z M 5.140625 0 "/></g></g></g><g fill="#000000" fill-opacity="1"><g transform="translate(1177.897427, 506.991861)"><g/></g></g><g fill="#000000" fill-opacity="1"><g transform="translate(1187.543214, 506.991861)"><g><path d="M 10.296875 0.464844 C 14.164062 0.464844 17.308594 -1.875 18.375 -5.398438 L 16.347656 -5.398438 C 15.296875 -2.820312 12.976562 -1.410156 10.3125 -1.410156 C 6.875 -1.410156 3.488281 -4.230469 3.488281 -8.714844 C 3.488281 -13.167969 6.859375 -15.984375 10.3125 -15.984375 C 12.976562 -15.984375 15.316406 -14.59375 16.347656 -12.085938 L 18.394531 -12.085938 C 17.292969 -15.503906 14.199219 -17.878906 10.296875 -17.878906 C 5.414062 -17.878906 1.511719 -13.804688 1.511719 -8.699219 C 1.511719 -3.609375 5.414062 0.464844 10.296875 0.464844 Z M 10.296875 0.464844 "/></g></g></g><g fill="#000000" fill-opacity="1"><g transform="translate(1208.018155, 506.991861)"><g><path d="M 10.46875 0.464844 C 15.523438 0.464844 19.441406 -3.59375 19.441406 -8.699219 C 19.441406 -13.820312 15.523438 -17.878906 10.46875 -17.878906 C 5.414062 -17.878906 1.511719 -13.820312 1.511719 -8.699219 C 1.511719 -3.574219 5.433594 0.464844 10.46875 0.464844 Z M 10.484375 -1.425781 C 6.601562 -1.425781 3.488281 -4.554688 3.488281 -8.714844 C 3.488281 -12.824219 6.601562 -15.984375 10.484375 -15.984375 C 14.371094 -15.984375 17.449219 -12.824219 17.449219 -8.714844 C 17.449219 -4.554688 14.371094 -1.425781 10.484375 -1.425781 Z M 10.484375 -1.425781 "/></g></g></g><g fill="#000000" fill-opacity="1"><g transform="translate(1229.816671, 506.991861)"><g><path d="M 5.140625 0 L 5.140625 -9.386719 C 5.140625 -13.355469 8.164062 -16.003906 11.449219 -16.003906 C 14.953125 -16.003906 17.019531 -13.957031 17.019531 -9.453125 L 17.019531 0 L 19.011719 0 L 19.011719 -9.488281 C 19.011719 -15.144531 16.484375 -17.878906 11.894531 -17.878906 C 8.714844 -17.878906 6.050781 -16.039062 5.070312 -13.511719 L 5.070312 -17.414062 L 3.164062 -17.414062 L 3.164062 0 Z M 5.140625 0 "/></g></g></g><g fill="#000000" fill-opacity="1"><g transform="translate(1252.560579, 506.991861)"><g><path d="M 12.460938 0 L 12.460938 -1.734375 L 9.882812 -1.734375 C 8.128906 -1.734375 6.257812 -2.304688 6.257812 -6.222656 L 6.257812 -15.625 L 12.460938 -15.625 L 12.460938 -17.414062 L 6.257812 -17.414062 L 6.257812 -22.671875 L 4.28125 -22.671875 L 4.28125 -17.414062 L 0.171875 -17.414062 L 0.171875 -15.625 L 4.28125 -15.625 L 4.28125 -6.292969 C 4.28125 -1.152344 6.839844 0 9.539062 0 Z M 12.460938 0 "/></g></g></g><g fill="#000000" fill-opacity="1"><g transform="translate(1266.864628, 506.991861)"><g><path d="M 10.089844 0.464844 C 13.460938 0.464844 16.296875 -1.410156 17.535156 -4.347656 L 17.535156 0 L 19.441406 0 L 19.441406 -17.414062 L 17.535156 -17.414062 L 17.535156 -13.03125 C 16.296875 -15.96875 13.460938 -17.859375 10.089844 -17.859375 C 5.3125 -17.859375 1.511719 -13.820312 1.511719 -8.699219 C 1.511719 -3.574219 5.292969 0.464844 10.089844 0.464844 Z M 10.484375 -1.425781 C 6.652344 -1.425781 3.488281 -4.46875 3.488281 -8.714844 C 3.488281 -12.875 6.617188 -15.984375 10.484375 -15.984375 C 14.335938 -15.984375 17.464844 -12.789062 17.464844 -8.714844 C 17.464844 -4.589844 14.351562 -1.425781 10.484375 -1.425781 Z M 10.484375 -1.425781 "/></g></g></g><g fill="#000000" fill-opacity="1"><g transform="translate(1290.313302, 506.991861)"><g><path d="M 4.144531 -21.417969 C 5.070312 -21.417969 5.691406 -22.054688 5.691406 -22.878906 C 5.691406 -23.671875 5.070312 -24.339844 4.144531 -24.339844 C 3.230469 -24.339844 2.613281 -23.671875 2.613281 -22.878906 C 2.613281 -22.054688 3.230469 -21.417969 4.144531 -21.417969 Z M 5.140625 0 L 5.140625 -17.414062 L 3.164062 -17.414062 L 3.164062 0 Z M 5.140625 0 "/></g></g></g><g fill="#000000" fill-opacity="1"><g transform="translate(1299.460608, 506.991861)"><g><path d="M 5.140625 0 L 5.140625 -9.386719 C 5.140625 -13.355469 8.164062 -16.003906 11.449219 -16.003906 C 14.953125 -16.003906 17.019531 -13.957031 17.019531 -9.453125 L 17.019531 0 L 19.011719 0 L 19.011719 -9.488281 C 19.011719 -15.144531 16.484375 -17.878906 11.894531 -17.878906 C 8.714844 -17.878906 6.050781 -16.039062 5.070312 -13.511719 L 5.070312 -17.414062 L 3.164062 -17.414062 L 3.164062 0 Z M 5.140625 0 "/></g></g></g><g fill="#000000" fill-opacity="1"><g transform="translate(1322.204516, 506.991861)"><g><path d="M 8.59375 0.464844 C 12.703125 0.464844 15.332031 -1.375 15.332031 -4.710938 C 15.332031 -8.578125 11.84375 -9.265625 8.972656 -9.730469 C 5.550781 -10.3125 4.347656 -11.085938 4.347656 -13.046875 C 4.347656 -14.75 5.671875 -16.175781 8.335938 -16.175781 C 11.019531 -16.175781 12.71875 -14.886719 12.824219 -12.960938 L 14.78125 -12.945312 C 14.78125 -15.761719 12.257812 -17.878906 8.335938 -17.878906 C 4.28125 -17.878906 2.390625 -15.574219 2.390625 -13.011719 C 2.390625 -9.574219 5.226562 -8.578125 8.386719 -8.0625 C 11.414062 -7.5625 13.339844 -6.980469 13.339844 -4.625 C 13.339844 -2.507812 11.65625 -1.203125 8.613281 -1.203125 C 5.3125 -1.203125 3.4375 -2.992188 3.402344 -5.191406 L 1.496094 -5.191406 C 1.496094 -2.269531 3.9375 0.464844 8.59375 0.464844 Z M 8.59375 0.464844 "/></g></g></g><g fill="#000000" fill-opacity="1"><g transform="translate(1012.210251, 555.960023)"><g><path d="M 24.390625 -17.878906 C 21.488281 -17.878906 18.996094 -16.160156 17.707031 -12.976562 C 16.863281 -16.277344 14.714844 -17.878906 11.429688 -17.878906 C 8.40625 -17.878906 5.949219 -15.96875 5.070312 -13.511719 L 5.054688 -17.414062 L 3.164062 -17.414062 L 3.164062 0 L 5.121094 0 L 5.121094 -9.386719 C 5.121094 -13.253906 7.925781 -16.003906 10.96875 -16.003906 C 14.199219 -16.003906 16.125 -13.957031 16.125 -9.453125 L 16.125 0 L 18.082031 0 L 18.082031 -9.386719 C 18.082031 -13.253906 20.886719 -16.003906 23.894531 -16.003906 C 27.160156 -16.003906 29.066406 -13.941406 29.066406 -9.453125 L 29.066406 0 L 31.027344 0 L 31.027344 -9.488281 C 31.027344 -15.144531 28.65625 -17.878906 24.390625 -17.878906 Z M 24.390625 -17.878906 "/></g></g></g><g fill="#000000" fill-opacity="1"><g transform="translate(1046.986564, 555.960023)"><g><path d="M 10.46875 0.464844 C 15.523438 0.464844 19.441406 -3.59375 19.441406 -8.699219 C 19.441406 -13.820312 15.523438 -17.878906 10.46875 -17.878906 C 5.414062 -17.878906 1.511719 -13.820312 1.511719 -8.699219 C 1.511719 -3.574219 5.433594 0.464844 10.46875 0.464844 Z M 10.484375 -1.425781 C 6.601562 -1.425781 3.488281 -4.554688 3.488281 -8.714844 C 3.488281 -12.824219 6.601562 -15.984375 10.484375 -15.984375 C 14.371094 -15.984375 17.449219 -12.824219 17.449219 -8.714844 C 17.449219 -4.554688 14.371094 -1.425781 10.484375 -1.425781 Z M 10.484375 -1.425781 "/></g></g></g><g fill="#000000" fill-opacity="1"><g transform="translate(1068.785076, 555.960023)"><g><path d="M 5.15625 0 L 5.15625 -8.285156 C 5.15625 -12.890625 7.734375 -15.625 10.96875 -15.625 L 12.429688 -15.625 L 12.429688 -17.414062 L 10.882812 -17.414062 C 8.148438 -17.414062 5.980469 -15.726562 5.089844 -12.890625 L 5.089844 -17.414062 L 3.164062 -17.414062 L 3.164062 0 Z M 5.15625 0 "/></g></g></g><g fill="#000000" fill-opacity="1"><g transform="translate(1082.745335, 555.960023)"><g><path d="M 18.683594 -9.179688 C 18.683594 -13.820312 15.039062 -17.878906 10.210938 -17.878906 C 5.363281 -17.878906 1.511719 -13.804688 1.511719 -8.699219 C 1.511719 -3.59375 5.363281 0.445312 10.210938 0.445312 C 13.871094 0.445312 16.984375 -1.820312 18.066406 -5.035156 L 15.847656 -5.035156 C 14.902344 -2.664062 12.71875 -1.410156 10.175781 -1.410156 C 6.875 -1.410156 3.730469 -4.109375 3.507812 -8.371094 L 18.652344 -8.371094 C 18.683594 -8.785156 18.683594 -8.957031 18.683594 -9.179688 Z M 3.59375 -10.140625 C 4.144531 -13.734375 7.011719 -15.984375 10.175781 -15.984375 C 13.632812 -15.984375 16.503906 -13.269531 16.675781 -10.140625 Z M 3.59375 -10.140625 "/></g></g></g><g fill="#000000" fill-opacity="1"><g transform="translate(1103.460924, 555.960023)"><g/></g></g><g fill="#000000" fill-opacity="1"><g transform="translate(1113.106704, 555.960023)"><g><path d="M 5.140625 5.949219 L 5.140625 -2.390625 L 5.121094 -4.316406 C 6.394531 -1.359375 9.28125 0.464844 12.410156 0.464844 C 17.277344 0.464844 21.089844 -3.574219 21.089844 -8.699219 C 21.089844 -13.804688 17.292969 -17.878906 12.394531 -17.878906 C 8.9375 -17.878906 6.257812 -15.695312 5.070312 -13.03125 L 5.070312 -17.414062 L 3.164062 -17.414062 L 3.164062 5.949219 Z M 12.117188 -1.410156 C 8.285156 -1.410156 5.140625 -4.554688 5.140625 -8.714844 C 5.140625 -12.789062 8.25 -16.003906 12.117188 -16.003906 C 15.96875 -16.003906 19.113281 -12.875 19.113281 -8.714844 C 19.113281 -4.46875 15.953125 -1.410156 12.117188 -1.410156 Z M 12.117188 -1.410156 "/></g></g></g><g fill="#000000" fill-opacity="1"><g transform="translate(1136.555371, 555.960023)"><g><path d="M 5.15625 0 L 5.15625 -8.285156 C 5.15625 -12.890625 7.734375 -15.625 10.96875 -15.625 L 12.429688 -15.625 L 12.429688 -17.414062 L 10.882812 -17.414062 C 8.148438 -17.414062 5.980469 -15.726562 5.089844 -12.890625 L 5.089844 -17.414062 L 3.164062 -17.414062 L 3.164062 0 Z M 5.15625 0 "/></g></g></g><g fill="#000000" fill-opacity="1"><g transform="translate(1150.515637, 555.960023)"><g><path d="M 10.46875 0.464844 C 15.523438 0.464844 19.441406 -3.59375 19.441406 -8.699219 C 19.441406 -13.820312 15.523438 -17.878906 10.46875 -17.878906 C 5.414062 -17.878906 1.511719 -13.820312 1.511719 -8.699219 C 1.511719 -3.574219 5.433594 0.464844 10.46875 0.464844 Z M 10.484375 -1.425781 C 6.601562 -1.425781 3.488281 -4.554688 3.488281 -8.714844 C 3.488281 -12.824219 6.601562 -15.984375 10.484375 -15.984375 C 14.371094 -15.984375 17.449219 -12.824219 17.449219 -8.714844 C 17.449219 -4.554688 14.371094 -1.425781 10.484375 -1.425781 Z M 10.484375 -1.425781 "/></g></g></g><g fill="#000000" fill-opacity="1"><g transform="translate(1172.314153, 555.960023)"><g><path d="M 12.460938 0 L 12.460938 -1.734375 L 9.882812 -1.734375 C 8.128906 -1.734375 6.257812 -2.304688 6.257812 -6.222656 L 6.257812 -15.625 L 12.460938 -15.625 L 12.460938 -17.414062 L 6.257812 -17.414062 L 6.257812 -22.671875 L 4.28125 -22.671875 L 4.28125 -17.414062 L 0.171875 -17.414062 L 0.171875 -15.625 L 4.28125 -15.625 L 4.28125 -6.292969 C 4.28125 -1.152344 6.839844 0 9.539062 0 Z M 12.460938 0 "/></g></g></g><g fill="#000000" fill-opacity="1"><g transform="translate(1186.618202, 555.960023)"><g><path d="M 18.683594 -9.179688 C 18.683594 -13.820312 15.039062 -17.878906 10.210938 -17.878906 C 5.363281 -17.878906 1.511719 -13.804688 1.511719 -8.699219 C 1.511719 -3.59375 5.363281 0.445312 10.210938 0.445312 C 13.871094 0.445312 16.984375 -1.820312 18.066406 -5.035156 L 15.847656 -5.035156 C 14.902344 -2.664062 12.71875 -1.410156 10.175781 -1.410156 C 6.875 -1.410156 3.730469 -4.109375 3.507812 -8.371094 L 18.652344 -8.371094 C 18.683594 -8.785156 18.683594 -8.957031 18.683594 -9.179688 Z M 3.59375 -10.140625 C 4.144531 -13.734375 7.011719 -15.984375 10.175781 -15.984375 C 13.632812 -15.984375 16.503906 -13.269531 16.675781 -10.140625 Z M 3.59375 -10.140625 "/></g></g></g><g fill="#000000" fill-opacity="1"><g transform="translate(1207.333798, 555.960023)"><g><path d="M 4.144531 -21.417969 C 5.070312 -21.417969 5.691406 -22.054688 5.691406 -22.878906 C 5.691406 -23.671875 5.070312 -24.339844 4.144531 -24.339844 C 3.230469 -24.339844 2.613281 -23.671875 2.613281 -22.878906 C 2.613281 -22.054688 3.230469 -21.417969 4.144531 -21.417969 Z M 5.140625 0 L 5.140625 -17.414062 L 3.164062 -17.414062 L 3.164062 0 Z M 5.140625 0 "/></g></g></g><g fill="#000000" fill-opacity="1"><g transform="translate(1216.481104, 555.960023)"><g><path d="M 5.140625 0 L 5.140625 -9.386719 C 5.140625 -13.355469 8.164062 -16.003906 11.449219 -16.003906 C 14.953125 -16.003906 17.019531 -13.957031 17.019531 -9.453125 L 17.019531 0 L 19.011719 0 L 19.011719 -9.488281 C 19.011719 -15.144531 16.484375 -17.878906 11.894531 -17.878906 C 8.714844 -17.878906 6.050781 -16.039062 5.070312 -13.511719 L 5.070312 -17.414062 L 3.164062 -17.414062 L 3.164062 0 Z M 5.140625 0 "/></g></g></g><g fill="#000000" fill-opacity="1"><g transform="translate(1239.225012, 555.960023)"><g/></g></g><g fill="#000000" fill-opacity="1"><g transform="translate(1248.870799, 555.960023)"><g><path d="M 12.460938 0 L 12.460938 -1.734375 L 9.882812 -1.734375 C 8.128906 -1.734375 6.257812 -2.304688 6.257812 -6.222656 L 6.257812 -15.625 L 12.460938 -15.625 L 12.460938 -17.414062 L 6.257812 -17.414062 L 6.257812 -22.671875 L 4.28125 -22.671875 L 4.28125 -17.414062 L 0.171875 -17.414062 L 0.171875 -15.625 L 4.28125 -15.625 L 4.28125 -6.292969 C 4.28125 -1.152344 6.839844 0 9.539062 0 Z M 12.460938 0 "/></g></g></g><g fill="#000000" fill-opacity="1"><g transform="translate(1263.174834, 555.960023)"><g><path d="M 5.140625 0 L 5.140625 -9.386719 C 5.140625 -13.253906 8.164062 -16.003906 11.449219 -16.003906 C 14.953125 -16.003906 17.019531 -13.957031 17.019531 -9.453125 L 17.019531 0 L 19.011719 0 L 19.011719 -9.488281 C 19.011719 -15.144531 16.484375 -17.878906 11.894531 -17.878906 C 8.714844 -17.878906 6.121094 -16.070312 5.105469 -13.546875 L 5.140625 -15.316406 L 5.140625 -24.1875 L 3.164062 -24.1875 L 3.164062 0 Z M 5.140625 0 "/></g></g></g><g fill="#000000" fill-opacity="1"><g transform="translate(1285.918742, 555.960023)"><g><path d="M 10.089844 0.464844 C 13.460938 0.464844 16.296875 -1.410156 17.535156 -4.347656 L 17.535156 0 L 19.441406 0 L 19.441406 -17.414062 L 17.535156 -17.414062 L 17.535156 -13.03125 C 16.296875 -15.96875 13.460938 -17.859375 10.089844 -17.859375 C 5.3125 -17.859375 1.511719 -13.820312 1.511719 -8.699219 C 1.511719 -3.574219 5.292969 0.464844 10.089844 0.464844 Z M 10.484375 -1.425781 C 6.652344 -1.425781 3.488281 -4.46875 3.488281 -8.714844 C 3.488281 -12.875 6.617188 -15.984375 10.484375 -15.984375 C 14.335938 -15.984375 17.464844 -12.789062 17.464844 -8.714844 C 17.464844 -4.589844 14.351562 -1.425781 10.484375 -1.425781 Z M 10.484375 -1.425781 "/></g></g></g><g fill="#000000" fill-opacity="1"><g transform="translate(1309.367416, 555.960023)"><g><path d="M 5.140625 0 L 5.140625 -9.386719 C 5.140625 -13.355469 8.164062 -16.003906 11.449219 -16.003906 C 14.953125 -16.003906 17.019531 -13.957031 17.019531 -9.453125 L 17.019531 0 L 19.011719 0 L 19.011719 -9.488281 C 19.011719 -15.144531 16.484375 -17.878906 11.894531 -17.878906 C 8.714844 -17.878906 6.050781 -16.039062 5.070312 -13.511719 L 5.070312 -17.414062 L 3.164062 -17.414062 L 3.164062 0 Z M 5.140625 0 "/></g></g></g><g fill="#000000" fill-opacity="1"><g transform="translate(1332.111324, 555.960023)"><g/></g></g><g fill="#000000" fill-opacity="1"><g transform="translate(1341.757111, 555.960023)"><g><path d="M 10.089844 0.464844 C 13.460938 0.464844 16.296875 -1.410156 17.535156 -4.347656 L 17.535156 0 L 19.441406 0 L 19.441406 -17.414062 L 17.535156 -17.414062 L 17.535156 -13.03125 C 16.296875 -15.96875 13.460938 -17.859375 10.089844 -17.859375 C 5.3125 -17.859375 1.511719 -13.820312 1.511719 -8.699219 C 1.511719 -3.574219 5.292969 0.464844 10.089844 0.464844 Z M 10.484375 -1.425781 C 6.652344 -1.425781 3.488281 -4.46875 3.488281 -8.714844 C 3.488281 -12.875 6.617188 -15.984375 10.484375 -15.984375 C 14.335938 -15.984375 17.464844 -12.789062 17.464844 -8.714844 C 17.464844 -4.589844 14.351562 -1.425781 10.484375 -1.425781 Z M 10.484375 -1.425781 "/></g></g></g><g fill="#000000" fill-opacity="1"><g transform="translate(1136.048394, 604.928184)"><g><path d="M 8.59375 0.464844 C 12.703125 0.464844 15.332031 -1.375 15.332031 -4.710938 C 15.332031 -8.578125 11.84375 -9.265625 8.972656 -9.730469 C 5.550781 -10.3125 4.347656 -11.085938 4.347656 -13.046875 C 4.347656 -14.75 5.671875 -16.175781 8.335938 -16.175781 C 11.019531 -16.175781 12.71875 -14.886719 12.824219 -12.960938 L 14.78125 -12.945312 C 14.78125 -15.761719 12.257812 -17.878906 8.335938 -17.878906 C 4.28125 -17.878906 2.390625 -15.574219 2.390625 -13.011719 C 2.390625 -9.574219 5.226562 -8.578125 8.386719 -8.0625 C 11.414062 -7.5625 13.339844 -6.980469 13.339844 -4.625 C 13.339844 -2.507812 11.65625 -1.203125 8.613281 -1.203125 C 5.3125 -1.203125 3.4375 -2.992188 3.402344 -5.191406 L 1.496094 -5.191406 C 1.496094 -2.269531 3.9375 0.464844 8.59375 0.464844 Z M 8.59375 0.464844 "/></g></g></g><g fill="#000000" fill-opacity="1"><g transform="translate(1153.618375, 604.928184)"><g><path d="M 12.460938 0 L 12.460938 -1.734375 L 9.882812 -1.734375 C 8.128906 -1.734375 6.257812 -2.304688 6.257812 -6.222656 L 6.257812 -15.625 L 12.460938 -15.625 L 12.460938 -17.414062 L 6.257812 -17.414062 L 6.257812 -22.671875 L 4.28125 -22.671875 L 4.28125 -17.414062 L 0.171875 -17.414062 L 0.171875 -15.625 L 4.28125 -15.625 L 4.28125 -6.292969 C 4.28125 -1.152344 6.839844 0 9.539062 0 Z M 12.460938 0 "/></g></g></g><g fill="#000000" fill-opacity="1"><g transform="translate(1167.922419, 604.928184)"><g><path d="M 18.683594 -9.179688 C 18.683594 -13.820312 15.039062 -17.878906 10.210938 -17.878906 C 5.363281 -17.878906 1.511719 -13.804688 1.511719 -8.699219 C 1.511719 -3.59375 5.363281 0.445312 10.210938 0.445312 C 13.871094 0.445312 16.984375 -1.820312 18.066406 -5.035156 L 15.847656 -5.035156 C 14.902344 -2.664062 12.71875 -1.410156 10.175781 -1.410156 C 6.875 -1.410156 3.730469 -4.109375 3.507812 -8.371094 L 18.652344 -8.371094 C 18.683594 -8.785156 18.683594 -8.957031 18.683594 -9.179688 Z M 3.59375 -10.140625 C 4.144531 -13.734375 7.011719 -15.984375 10.175781 -15.984375 C 13.632812 -15.984375 16.503906 -13.269531 16.675781 -10.140625 Z M 3.59375 -10.140625 "/></g></g></g><g fill="#000000" fill-opacity="1"><g transform="translate(1188.638011, 604.928184)"><g><path d="M 10.089844 0.464844 C 13.460938 0.464844 16.296875 -1.410156 17.535156 -4.347656 L 17.535156 0 L 19.441406 0 L 19.441406 -17.414062 L 17.535156 -17.414062 L 17.535156 -13.03125 C 16.296875 -15.96875 13.460938 -17.859375 10.089844 -17.859375 C 5.3125 -17.859375 1.511719 -13.820312 1.511719 -8.699219 C 1.511719 -3.574219 5.292969 0.464844 10.089844 0.464844 Z M 10.484375 -1.425781 C 6.652344 -1.425781 3.488281 -4.46875 3.488281 -8.714844 C 3.488281 -12.875 6.617188 -15.984375 10.484375 -15.984375 C 14.335938 -15.984375 17.464844 -12.789062 17.464844 -8.714844 C 17.464844 -4.589844 14.351562 -1.425781 10.484375 -1.425781 Z M 10.484375 -1.425781 "/></g></g></g><g fill="#000000" fill-opacity="1"><g transform="translate(1212.086677, 604.928184)"><g><path d="M 17.191406 0 L 10.28125 -10.382812 L 16.175781 -17.414062 L 13.734375 -17.414062 L 5.140625 -7.238281 L 5.140625 -24.1875 L 3.164062 -24.1875 L 3.164062 0 L 5.140625 0 L 5.140625 -4.949219 L 8.835938 -9.058594 L 14.902344 0 Z M 17.191406 0 "/></g></g></g><g fill="#000000" fill-opacity="1"><g transform="translate(1230.447357, 604.928184)"><g><path d="M 5.757812 -6.464844 L 6.015625 -11.171875 L 6.015625 -23.378906 L 3.988281 -23.378906 L 3.988281 -11.191406 L 4.246094 -6.464844 Z M 5.019531 0.292969 C 5.929688 0.292969 6.566406 -0.359375 6.566406 -1.167969 C 6.566406 -1.976562 5.929688 -2.648438 5.019531 -2.648438 C 4.144531 -2.648438 3.507812 -1.976562 3.507812 -1.167969 C 3.507812 -0.359375 4.144531 0.292969 5.019531 0.292969 Z M 5.019531 0.292969 "/></g></g></g><g mask="url(#e35ff3429d)"><g transform="matrix(1, 0, 0, 1, 67, 536)"><g clip-path="url(#64c747f270)"><g clip-path="url(#d81a59979d)"><g clip-path="url(#d740a68681)"><g clip-path="url(#264ec91c1e)"><path fill="#40552f" d="M 59.339844 216.40625 C 60.066406 215.59375 60.824219 214.761719 61.570312 213.976562 C 68.953125 206.476562 76.332031 199.027344 83.734375 191.558594 C 88.328125 186.90625 92.734375 182.035156 97.574219 177.636719 C 102.484375 173.148438 107.78125 169.121094 112.894531 164.878906 C 113.042969 164.785156 113.21875 164.667969 113.382812 164.601562 C 113.519531 164.679688 113.683594 164.738281 113.761719 164.855469 C 117.273438 170.648438 122.851562 173.953125 128.640625 176.945312 C 131.640625 178.5 134.628906 180.105469 137.675781 181.542969 C 138.226562 181.808594 139.320312 181.679688 139.683594 181.273438 C 140.046875 180.867188 140.152344 179.746094 139.871094 179.257812 C 137.582031 175.390625 134.800781 171.929688 130.992188 169.523438 C 126.6875 166.8125 122.167969 164.410156 117.757812 161.855469 C 117.554688 161.734375 117.378906 161.597656 116.796875 161.226562 C 122.328125 157.296875 127.699219 153.515625 132.847656 149.835938 C 134.453125 151.257812 135.808594 152.421875 137.09375 153.675781 C 137.722656 154.3125 138.3125 155.015625 138.851562 155.710938 C 140.621094 157.824219 142.277344 160.089844 144.242188 161.992188 C 145.546875 163.148438 147.109375 164.050781 148.75 164.566406 C 151.566406 165.527344 154.511719 166.109375 157.402344 166.730469 C 158.324219 166.921875 159.308594 166.945312 160.222656 166.804688 C 162.039062 166.496094 162.683594 164.855469 161.496094 163.496094 C 158.140625 159.738281 154.800781 155.933594 151.203125 152.378906 C 147.925781 149.117188 143.652344 147.476562 139.1875 145.921875 C 140.09375 145.324219 140.867188 144.773438 141.710938 144.261719 C 147.421875 140.929688 153.101562 137.617188 158.8125 134.28125 C 159.242188 134.042969 159.644531 133.820312 160.113281 133.636719 C 160.921875 133.273438 161.523438 133.421875 161.976562 134.300781 C 164.742188 139.660156 168.886719 144.238281 173.925781 147.558594 C 175.300781 148.5 176.796875 149.242188 178.398438 149.699219 C 181.160156 150.445312 184.007812 150.878906 186.820312 151.382812 C 187.871094 151.574219 189.019531 151.53125 189.660156 150.523438 C 190.367188 149.429688 189.695312 148.527344 189.117188 147.648438 C 186.738281 143.964844 184.183594 140.398438 180.617188 137.664062 C 179.050781 136.425781 177.660156 134.949219 176.441406 133.355469 C 174.726562 131.125 172.453125 130.226562 169.789062 129.878906 C 169.214844 129.839844 168.652344 129.621094 168.167969 129.265625 C 170.726562 128.046875 173.226562 126.738281 175.828125 125.574219 C 178.367188 124.453125 180.992188 123.523438 183.542969 122.476562 C 184.371094 122.140625 184.75 122.398438 185.300781 123.042969 C 188.28125 126.621094 191.195312 130.289062 194.492188 133.578125 C 196.003906 135.105469 198.183594 136.191406 200.285156 136.824219 C 204.101562 137.96875 208.089844 138.660156 212.019531 139.394531 C 212.679688 139.507812 213.871094 139.144531 214.070312 138.679688 C 214.335938 137.871094 214.246094 136.964844 213.792969 136.214844 C 208.542969 128.667969 201.695312 123.050781 192.976562 119.886719 C 192.449219 119.726562 191.976562 119.453125 191.597656 119.070312 L 214.539062 111.128906 C 215.304688 116.835938 218.605469 120.964844 221.789062 125.167969 C 222.339844 125.8125 223.007812 126.378906 223.785156 126.792969 C 227.238281 128.722656 230.726562 130.582031 234.25 132.421875 C 235.074219 132.847656 235.898438 133.144531 236.792969 133.351562 C 238.660156 133.761719 239.945312 132.457031 239.21875 130.710938 C 238.175781 128.164062 237.0625 125.578125 235.503906 123.332031 C 232.851562 119.492188 229.910156 115.84375 226.957031 112.242188 C 225.960938 111.050781 224.515625 110.195312 223.171875 109.105469 C 229.996094 107.851562 236.777344 106.082031 243.941406 105.988281 C 243.375 109.089844 245.328125 111.292969 246.515625 113.617188 C 247.996094 116.503906 249.769531 119.203125 251.835938 121.703125 C 254.777344 125.226562 259.027344 126.253906 263.445312 126.328125 C 265.917969 126.382812 266.671875 124.839844 265.617188 122.59375 C 262.855469 116.730469 258.476562 112.175781 253.734375 107.90625 C 253.394531 107.582031 253.027344 107.28125 252.660156 106.976562 C 252.621094 106.917969 252.59375 106.808594 252.535156 106.59375 C 258.570312 107.207031 264.59375 106.140625 270.273438 108.324219 C 271.46875 108.800781 272.625 109.34375 273.835938 109.84375 C 274.292969 110.089844 274.800781 110.222656 275.296875 110.273438 C 275.65625 110.246094 275.980469 110.035156 276.195312 109.722656 C 276.285156 109.414062 276.199219 109.089844 275.96875 108.867188 C 274.746094 107.90625 273.617188 106.757812 272.210938 106.089844 C 268.503906 104.285156 264.554688 103.523438 260.417969 103.429688 C 257.488281 103.382812 254.546875 103.132812 251.679688 102.667969 C 251.972656 102.476562 252.265625 102.28125 252.53125 102.109375 C 255.613281 99.957031 258.859375 97.992188 261.789062 95.605469 C 266.085938 92.105469 267.945312 87.066406 269.605469 81.984375 C 269.976562 80.945312 270.195312 79.878906 270.351562 78.769531 C 270.496094 77.328125 269.316406 76.175781 268.039062 76.722656 C 261.640625 79.457031 254.769531 81.664062 250.578125 87.695312 C 248.667969 90.417969 247.507812 93.699219 246.179688 96.796875 C 245.398438 98.613281 244.867188 100.554688 244.371094 101.972656 L 223.910156 105.179688 C 223.910156 105.179688 223.832031 105.0625 223.863281 105.042969 C 228.40625 99.746094 230.304688 93.167969 232.804688 86.867188 C 233.132812 85.898438 233.285156 84.914062 233.292969 83.902344 C 233.34375 82.191406 232.035156 81.160156 230.558594 82.046875 C 228.339844 83.335938 226.101562 84.726562 224.355469 86.546875 C 221.863281 89.148438 219.765625 92.164062 217.574219 95.03125 C 215.007812 98.351562 214.171875 102.261719 213.988281 106.328125 C 213.921875 107.378906 213.617188 107.871094 212.582031 108.21875 C 206.511719 110.234375 200.46875 112.359375 194.386719 114.425781 C 194.171875 114.484375 193.949219 114.589844 193.460938 114.742188 C 193.675781 114.429688 193.914062 114.148438 194.167969 113.898438 C 195.988281 112.578125 196.984375 110.703125 197.835938 108.675781 C 199.769531 103.878906 200.925781 98.796875 201.285156 93.648438 C 201.386719 91.695312 201.234375 89.738281 200.867188 87.835938 C 200.417969 85.488281 198.738281 85.039062 197.058594 86.773438 C 196.011719 87.796875 195.039062 88.941406 194.203125 90.164062 C 190.636719 95.484375 186.890625 100.71875 184.78125 106.84375 C 184.117188 108.835938 183.613281 110.886719 183.308594 112.976562 C 183.105469 114.203125 183.386719 115.527344 183.445312 116.832031 L 182.285156 117.050781 L 183.238281 118.816406 C 178.402344 120.859375 173.695312 122.90625 168.75 124.980469 C 170.804688 121.320312 171.53125 117.441406 171.726562 113.453125 C 171.988281 108.160156 170.777344 103.121094 169.042969 98.179688 C 168.8125 97.574219 168.007812 96.800781 167.472656 96.816406 C 166.839844 96.8125 165.929688 97.410156 165.605469 98.003906 C 164.5 99.902344 163.511719 101.851562 162.679688 103.910156 C 161.0625 108.039062 159.652344 112.28125 158.035156 116.410156 C 156.644531 120.050781 156.988281 123.644531 157.964844 127.242188 C 158.792969 130.351562 158.800781 130.300781 156.0625 131.890625 C 150.558594 135.089844 145.074219 138.316406 139.566406 141.515625 C 139.109375 141.777344 138.648438 142.035156 137.847656 142.480469 C 138.125 141.625 138.257812 141.117188 138.414062 140.59375 C 141.746094 131.144531 140.289062 122.28125 135.277344 113.820312 C 134.921875 113.214844 134.605469 112.542969 134.191406 111.976562 C 133.410156 110.851562 131.917969 110.949219 131.492188 112.28125 C 128.78125 120.566406 126.582031 128.980469 126.476562 137.78125 C 126.375 139.988281 127.089844 142.164062 128.449219 143.914062 C 129.210938 144.878906 129.796875 145.964844 130.511719 147.046875 C 125.355469 150.648438 120.332031 154.199219 115.207031 157.78125 C 115.324219 157.324219 115.40625 156.933594 115.488281 156.546875 C 117.542969 148.355469 115.960938 140.832031 111.285156 133.914062 C 110.417969 132.722656 109.433594 131.605469 108.378906 130.578125 C 108.03125 130.300781 107.574219 130.183594 107.097656 130.289062 C 106.734375 130.441406 106.273438 130.953125 106.300781 131.3125 C 106.636719 137.515625 105.101562 143.6875 106.292969 149.914062 C 106.949219 153.34375 108.496094 156.269531 110.308594 159.152344 C 111.183594 160.550781 111.089844 161.492188 109.855469 162.554688 C 104.476562 167.097656 98.789062 171.296875 93.835938 176.230469 C 82.246094 187.753906 70.671875 199.304688 60.9375 212.503906 C 60.121094 213.628906 59.421875 214.800781 58.644531 215.984375 Z M 133.65625 117.113281 C 137.421875 124.25 139.136719 134.914062 133.246094 145.710938 C 132 143.300781 129.800781 141.683594 129.664062 138.917969 C 129.394531 133.261719 130.871094 127.839844 132.003906 122.394531 C 132.386719 120.675781 133.058594 119.015625 133.65625 117.113281 Z M 163.929688 132.21875 C 164.007812 131.957031 164.089844 131.695312 164.167969 131.433594 C 166.421875 132.050781 168.6875 132.617188 170.902344 133.304688 C 171.671875 133.511719 172.398438 133.914062 172.996094 134.445312 C 176.0625 137.382812 179.082031 140.308594 182.019531 143.375 C 183.226562 144.636719 184.152344 146.167969 185.367188 147.761719 C 180.976562 147.414062 177.917969 146.53125 175.832031 145.089844 C 170.882812 141.710938 167.183594 137.175781 163.929688 132.21875 Z M 265.957031 81.613281 C 264.640625 88.691406 255.21875 98.914062 248.921875 100.199219 C 250.570312 90.429688 256.890625 84.761719 265.957031 81.613281 Z M 197.691406 90.804688 L 198.1875 90.984375 C 198.164062 91.839844 198.261719 92.695312 198.089844 93.523438 C 197.234375 97.78125 196.328125 102.027344 195.429688 106.226562 C 194.421875 110.960938 190.726562 113.136719 186.609375 115.636719 C 187.207031 105.671875 193.050781 98.515625 197.691406 90.804688 Z M 166.941406 102.914062 C 168.78125 108.589844 168.816406 115.742188 167.058594 120.929688 C 166.101562 123.824219 164.246094 126.050781 161.621094 127.945312 C 160.59375 124.589844 159.808594 121.414062 161.058594 118.070312 C 162.699219 113.722656 164.324219 109.421875 165.933594 105.089844 C 166.171875 104.429688 166.527344 103.816406 166.941406 102.914062 Z M 216.964844 110.792969 C 217.238281 110.699219 217.414062 110.582031 217.503906 110.648438 C 219.820312 111.9375 222.636719 112.773438 224.328125 114.640625 C 228.039062 118.75 231.179688 123.402344 234.535156 127.871094 C 234.71875 128.210938 234.882812 128.523438 235.003906 128.90625 L 234.703125 129.144531 C 231.433594 127.308594 228.136719 125.488281 224.898438 123.628906 C 224.480469 123.3125 224.101562 122.933594 223.816406 122.492188 C 220.949219 118.960938 218.882812 114.988281 216.964844 110.792969 Z M 208.574219 135.113281 C 205.238281 134.578125 201.832031 134.253906 198.84375 132.523438 C 197.691406 131.855469 196.683594 130.835938 195.699219 129.847656 C 194.152344 128.261719 192.65625 126.5625 191.148438 124.90625 L 189.390625 123 L 189.683594 122.679688 C 197.53125 124.449219 203.335938 129.320312 208.574219 135.113281 Z M 109.117188 135.214844 C 114 141.238281 114.804688 152.375 112.347656 157.015625 C 108.261719 150.925781 108.15625 144.113281 109.117188 135.214844 Z M 155.675781 162.703125 C 153.984375 162.300781 152.632812 161.972656 151.234375 161.632812 C 148.863281 161.09375 147.03125 159.90625 145.378906 158.09375 C 142.566406 155.03125 140.550781 151.195312 136.710938 149.0625 C 136.691406 149.03125 136.710938 148.933594 136.761719 148.691406 C 144.90625 150.726562 150.867188 155.703125 155.675781 162.703125 Z M 229.445312 86.808594 L 229.6875 86.984375 C 228.726562 89.421875 227.761719 91.859375 226.851562 94.308594 C 225.660156 97.480469 223.953125 100.449219 221.8125 103.074219 C 220.710938 104.46875 219.164062 105.445312 217.457031 105.851562 C 217.394531 103.710938 218.148438 100.570312 219.464844 98.867188 C 222.121094 95.359375 224.851562 91.96875 227.59375 88.53125 C 228.152344 87.910156 228.777344 87.332031 229.445312 86.808594 Z M 261.082031 122.34375 C 258.617188 122.113281 256.441406 121.363281 254.691406 119.660156 C 251.257812 116.289062 249.578125 111.8125 247.230469 107.730469 C 252.988281 111.503906 257.421875 116.523438 261.082031 122.34375 Z M 119.207031 166.230469 C 123.617188 168.789062 127.738281 171.160156 131.320312 174.304688 C 126.902344 172.378906 122.769531 170.058594 119.207031 166.230469 Z M 6.773438 153.496094 C 8.0625 155.589844 9.628906 157.328125 11.75 158.578125 C 12.613281 159.058594 13.398438 159.679688 14.210938 160.277344 C 16.148438 161.6875 18.421875 162.589844 20.785156 162.921875 C 22.039062 163.105469 23.21875 163.046875 23.917969 164.558594 C 24.367188 165.5625 25.871094 165.289062 26.296875 164.210938 C 26.464844 163.765625 26.539062 163.296875 26.480469 162.832031 C 25.902344 159.390625 25.167969 155.972656 23.28125 152.972656 C 22.839844 152.171875 22.25 151.46875 21.554688 150.917969 C 17.273438 147.730469 13 144.492188 7.902344 142.683594 C 7.171875 142.40625 6.453125 142.207031 5.695312 142.074219 C 3.527344 141.78125 2.269531 143.320312 3.109375 145.367188 C 4.28125 148.042969 5.546875 150.734375 6.773438 153.496094 Z M 22.371094 160.285156 L 22.007812 160.566406 C 18.925781 158.6875 15.746094 156.917969 12.800781 154.867188 C 10.078125 152.960938 8.871094 149.976562 7.738281 146.527344 C 8.910156 147.097656 9.71875 147.363281 10.40625 147.835938 C 13.042969 149.542969 15.640625 151.320312 18.234375 153.097656 C 20.765625 154.835938 21.652344 157.527344 22.371094 160.285156 Z M 59.445312 132.601562 C 58.589844 132.324219 57.796875 131.757812 57.277344 131.929688 C 56.429688 132.234375 55.695312 132.84375 55.25 133.640625 C 54.371094 135.433594 53.675781 137.320312 53.144531 139.261719 C 51.695312 144.917969 50.4375 150.613281 51.570312 156.496094 C 51.710938 157.289062 52.039062 158.039062 52.226562 158.835938 C 52.492188 160.007812 52.667969 161.234375 52.902344 162.421875 C 53.0625 163.113281 53.351562 163.808594 53.539062 164.480469 C 54.234375 164.191406 55.21875 164.089844 55.609375 163.539062 C 58.65625 159.605469 61.160156 155.359375 61.246094 150.179688 C 61.304688 146.238281 61.195312 142.238281 60.894531 138.324219 C 60.769531 136.476562 59.964844 134.613281 59.445312 132.601562 Z M 55.335938 158.640625 C 53.1875 151.28125 54.675781 144.722656 57.601562 138.304688 C 58.023438 145.082031 59.21875 151.890625 55.335938 158.640625 Z M 55.335938 158.640625 " fill-opacity="1" fill-rule="nonzero"/></g></g></g></g></g></g><path stroke-linecap="butt" transform="matrix(0.290829, -0.000000000000000009, 0.000000000000000009, 0.290829, 1062.985969, 295.784244)" fill="none" stroke-linejoin="miter" d="M 257.569293 68.006529 C 277.729889 68.006529 291.188194 55.098913 291.188194 35.70391 C 291.188194 16.416358 277.676163 3.508742 257.381253 3.508742 L 234.91045 3.508742 L 234.91045 68.006529 Z M 240.457636 8.585827 L 257.246939 8.585827 C 274.546637 8.585827 285.506694 19.492159 285.506694 35.905382 C 285.506694 52.211153 274.694383 62.875718 257.475273 62.875718 L 240.457636 62.875718 Z M 313.242623 68.006529 L 313.242623 3.508742 L 307.655143 3.508742 L 307.655143 68.006529 Z M 357.593246 68.006529 C 377.74041 68.006529 391.212147 55.098913 391.212147 35.70391 C 391.212147 16.416358 377.700116 3.508742 357.405206 3.508742 L 334.920971 3.508742 L 334.920971 68.006529 Z M 340.468157 8.585827 L 357.25746 8.585827 C 374.570589 8.585827 385.517215 19.492159 385.517215 35.905382 C 385.517215 52.211153 374.704904 62.875718 357.499226 62.875718 L 340.468157 62.875718 Z M 457.979848 68.006529 L 457.939553 43.15836 L 484.533809 3.508742 L 477.764362 3.508742 L 455.239833 38.081275 L 455.145813 38.081275 L 432.527264 3.508742 L 425.78468 3.508742 L 452.392367 43.15836 L 452.392367 68.006529 Z M 526.654813 69.188496 C 545.566284 69.188496 560.89156 54.346752 560.89156 35.70391 C 560.89156 16.980479 545.566284 2.138735 526.654813 2.138735 C 507.783636 2.138735 492.458361 16.980479 492.458361 35.70391 C 492.458361 54.346752 507.783636 69.188496 526.654813 69.188496 Z M 526.654813 63.923371 C 510.913163 63.923371 498.059272 51.647032 498.059272 35.70391 C 498.059272 19.733925 510.859437 7.350135 526.654813 7.350135 C 542.490484 7.350135 555.290649 19.733925 555.290649 35.70391 C 555.290649 51.647032 542.490484 63.923371 526.654813 63.923371 Z M 602.0455 69.22879 C 616.94097 69.22879 628.089067 58.617951 628.089067 42.97032 L 628.089067 3.468448 L 622.488156 3.468448 L 622.488156 42.728554 C 622.488156 54.346752 614.765076 63.923371 602.0455 63.923371 C 588.963275 63.923371 581.56255 54.158712 581.56255 42.540514 L 581.56255 3.468448 L 576.015365 3.468448 L 576.015365 42.97032 C 576.015365 58.846285 587.405228 69.22879 602.0455 69.22879 Z M 602.0455 69.22879 " stroke="#40552f" stroke-width="3.034909" stroke-opacity="1" stroke-miterlimit="4"/><path stroke-linecap="butt" transform="matrix(0.290829, -0.000000000000000009, 0.000000000000000009, 0.290829, 1062.985969, 295.784244)" fill="none" stroke-linejoin="miter" d="M 306.929845 91.511554 L 300.240986 91.511554 L 265.762473 133.243046 L 265.762473 91.511554 L 260.174993 91.511554 L 260.174993 155.995909 L 265.762473 155.995909 L 265.762473 140.778085 L 279.516271 124.042507 L 304.028653 155.995909 L 310.865257 155.995909 L 283.223349 119.865329 Z M 329.79016 155.995909 L 329.79016 101.235918 L 329.830454 101.235918 L 373.227445 155.995909 L 377.874724 155.995909 L 377.874724 91.511554 L 372.273813 91.511554 L 372.273813 146.513311 L 372.220087 146.473016 L 328.702213 91.511554 L 324.189248 91.511554 L 324.189248 155.995909 Z M 428.470968 157.191308 C 447.395871 157.191308 462.707715 142.349564 462.707715 123.706721 C 462.707715 104.98329 447.395871 90.141546 428.470968 90.141546 C 409.599792 90.141546 394.287947 104.98329 394.287947 123.706721 C 394.287947 142.349564 409.599792 157.191308 428.470968 157.191308 Z M 428.470968 151.926182 C 412.729318 151.926182 399.875427 139.636412 399.875427 123.706721 C 399.875427 107.723305 412.675592 95.352946 428.470968 95.352946 C 444.306639 95.352946 457.106804 107.723305 457.106804 123.706721 C 457.106804 139.636412 444.306639 151.926182 428.470968 151.926182 Z M 498.744276 155.995909 L 517.427412 99.382379 L 536.164275 155.995909 L 541.80548 155.995909 L 564.276284 91.511554 L 558.299292 91.511554 L 539.669881 145.66713 L 538.904289 148.608616 L 538.769974 148.608616 L 538.098402 145.85517 L 520.422624 91.511554 L 514.485926 91.511554 L 496.810148 145.85517 L 496.192302 148.608616 L 496.044556 148.608616 L 495.292395 145.895464 L 476.609258 91.511554 L 470.672561 91.511554 L 493.10307 155.995909 Z M 589.984065 138.118659 L 589.984065 135.230899 C 589.984065 130.67764 592.979276 127.024288 597.049004 123.666427 C 602.220109 119.341503 608.143375 114.653929 608.143375 106.877124 C 608.143375 96.924425 600.46059 90.181841 588.748372 90.181841 C 576.283993 90.181841 569.165329 97.394525 569.165329 107.49497 L 574.67222 107.49497 C 574.67222 99.812185 579.97764 95.312652 588.614058 95.312652 C 597.57283 95.312652 602.596189 99.906205 602.596189 107.159184 C 602.596189 111.900483 598.324991 115.647856 593.973203 119.583269 C 589.272198 123.706721 584.718939 128.542041 584.718939 134.989133 L 584.718939 138.118659 Z M 587.714151 156.801796 C 590.172105 156.801796 591.971918 155.001982 591.971918 152.772363 C 591.971918 150.542744 590.172105 148.702636 587.714151 148.702636 C 585.296491 148.702636 583.536972 150.542744 583.536972 152.772363 C 583.536972 155.001982 585.296491 156.801796 587.714151 156.801796 Z M 587.714151 156.801796 " stroke="#40552f" stroke-width="3.034909" stroke-opacity="1" stroke-miterlimit="4"/></svg>